<mxfile host="Electron" agent="Mozilla/5.0 (Windows NT 10.0; Win64; x64) AppleWebKit/537.36 (KHTML, like Gecko) draw.io/24.7.17 Chrome/128.0.6613.36 Electron/32.0.1 Safari/537.36" version="24.7.17">
  <diagram name="第 1 页" id="sFhqDjHU3HoJNC_Gg9CQ">
    <mxGraphModel dx="1168" dy="593" grid="1" gridSize="10" guides="1" tooltips="1" connect="1" arrows="1" fold="1" page="1" pageScale="1" pageWidth="1920" pageHeight="1200" math="0" shadow="0">
      <root>
        <mxCell id="0" />
        <mxCell id="1" parent="0" />
        <mxCell id="VkK7FNn0vx6hkwKJr5Af-6" style="edgeStyle=orthogonalEdgeStyle;rounded=0;orthogonalLoop=1;jettySize=auto;html=1;entryX=0;entryY=0.75;entryDx=0;entryDy=0;exitX=1;exitY=0.75;exitDx=0;exitDy=0;strokeWidth=3;endArrow=blockThin;endFill=1;" edge="1" parent="1">
          <mxGeometry relative="1" as="geometry">
            <mxPoint x="560" y="221" as="sourcePoint" />
            <mxPoint x="680" y="221" as="targetPoint" />
          </mxGeometry>
        </mxCell>
        <mxCell id="VkK7FNn0vx6hkwKJr5Af-8" style="edgeStyle=orthogonalEdgeStyle;rounded=0;orthogonalLoop=1;jettySize=auto;html=1;entryX=0.5;entryY=0;entryDx=0;entryDy=0;strokeWidth=3;endArrow=blockThin;endFill=1;" edge="1" parent="1" source="VkK7FNn0vx6hkwKJr5Af-1" target="VkK7FNn0vx6hkwKJr5Af-3">
          <mxGeometry relative="1" as="geometry" />
        </mxCell>
        <mxCell id="VkK7FNn0vx6hkwKJr5Af-1" value="Browser" style="rounded=1;whiteSpace=wrap;html=1;shadow=1;shadowOffsetX=6;shadowOffsetY=6;shadowBlur=2;linecap=round;arcSize=12;fillColor=#014c7e;gradientColor=none;strokeColor=none;glass=0;shadowColor=#577aa6;fontColor=#FFFFFF;fontSize=20;" vertex="1" parent="1">
          <mxGeometry x="440" y="180" width="120" height="60" as="geometry" />
        </mxCell>
        <mxCell id="VkK7FNn0vx6hkwKJr5Af-7" style="edgeStyle=orthogonalEdgeStyle;rounded=0;orthogonalLoop=1;jettySize=auto;html=1;entryX=1;entryY=0.25;entryDx=0;entryDy=0;exitX=0;exitY=0.25;exitDx=0;exitDy=0;strokeWidth=3;endArrow=blockThin;endFill=1;" edge="1" parent="1">
          <mxGeometry relative="1" as="geometry">
            <mxPoint x="680" y="201" as="sourcePoint" />
            <mxPoint x="560" y="201" as="targetPoint" />
          </mxGeometry>
        </mxCell>
        <mxCell id="VkK7FNn0vx6hkwKJr5Af-2" value="Web&lt;div style=&quot;font-size: 20px;&quot;&gt;Server&lt;/div&gt;" style="rounded=1;whiteSpace=wrap;html=1;shadow=1;shadowOffsetX=6;shadowOffsetY=6;shadowBlur=2;linecap=round;arcSize=12;fillColor=#c4141c;gradientColor=none;strokeColor=none;glass=0;shadowColor=#ca4735;fontColor=#FFFFFF;fontSize=20;" vertex="1" parent="1">
          <mxGeometry x="680" y="180" width="120" height="60" as="geometry" />
        </mxCell>
        <mxCell id="VkK7FNn0vx6hkwKJr5Af-9" style="edgeStyle=orthogonalEdgeStyle;rounded=0;orthogonalLoop=1;jettySize=auto;html=1;entryX=0.5;entryY=0;entryDx=0;entryDy=0;strokeWidth=3;endArrow=blockThin;endFill=1;" edge="1" parent="1" source="VkK7FNn0vx6hkwKJr5Af-3" target="VkK7FNn0vx6hkwKJr5Af-4">
          <mxGeometry relative="1" as="geometry" />
        </mxCell>
        <mxCell id="VkK7FNn0vx6hkwKJr5Af-3" value="&lt;span style=&quot;color: rgb(255, 255, 255); font-size: 20px;&quot;&gt;JS Engine&lt;/span&gt;" style="rounded=1;whiteSpace=wrap;html=1;shadow=1;shadowOffsetX=6;shadowOffsetY=6;shadowBlur=2;linecap=round;arcSize=12;fillColor=#b3006b;gradientColor=none;strokeColor=none;glass=0;shadowColor=#dd9cba;" vertex="1" parent="1">
          <mxGeometry x="440" y="300" width="120" height="60" as="geometry" />
        </mxCell>
        <mxCell id="VkK7FNn0vx6hkwKJr5Af-10" style="edgeStyle=orthogonalEdgeStyle;rounded=0;orthogonalLoop=1;jettySize=auto;html=1;strokeWidth=3;endArrow=blockThin;endFill=1;" edge="1" parent="1" source="VkK7FNn0vx6hkwKJr5Af-4" target="VkK7FNn0vx6hkwKJr5Af-5">
          <mxGeometry relative="1" as="geometry" />
        </mxCell>
        <mxCell id="VkK7FNn0vx6hkwKJr5Af-4" value="&lt;font color=&quot;#ffffff&quot;&gt;&lt;span style=&quot;font-size: 20px;&quot;&gt;CPU/GPU&lt;/span&gt;&lt;/font&gt;" style="rounded=1;whiteSpace=wrap;html=1;shadow=1;shadowOffsetX=6;shadowOffsetY=6;shadowBlur=2;linecap=round;arcSize=12;fillColor=#535097;gradientColor=none;strokeColor=none;glass=0;shadowColor=#8f89c2;" vertex="1" parent="1">
          <mxGeometry x="440" y="420" width="120" height="60" as="geometry" />
        </mxCell>
        <mxCell id="VkK7FNn0vx6hkwKJr5Af-5" value="&lt;font color=&quot;#ffffff&quot;&gt;&lt;span style=&quot;font-size: 20px;&quot;&gt;Framebuffer&lt;/span&gt;&lt;/font&gt;" style="rounded=1;whiteSpace=wrap;html=1;shadow=1;shadowOffsetX=6;shadowOffsetY=6;shadowBlur=2;linecap=round;arcSize=12;fillColor=#474641;gradientColor=none;strokeColor=none;glass=0;shadowColor=#90928D;shadowOpacity=25;enumerate=0;comic=0;backgroundOutline=0;" vertex="1" parent="1">
          <mxGeometry x="440" y="540" width="120" height="60" as="geometry" />
        </mxCell>
        <mxCell id="VkK7FNn0vx6hkwKJr5Af-11" value="Canvas" style="text;html=1;align=center;verticalAlign=middle;resizable=0;points=[];autosize=1;strokeColor=none;fillColor=none;fontStyle=1;fontSize=20;" vertex="1" parent="1">
          <mxGeometry x="560" y="550" width="90" height="40" as="geometry" />
        </mxCell>
        <mxCell id="VkK7FNn0vx6hkwKJr5Af-12" value="URL" style="text;html=1;align=center;verticalAlign=middle;resizable=0;points=[];autosize=1;strokeColor=none;fillColor=none;fontSize=20;fontStyle=1" vertex="1" parent="1">
          <mxGeometry x="590" y="160" width="60" height="40" as="geometry" />
        </mxCell>
        <mxCell id="VkK7FNn0vx6hkwKJr5Af-13" value="Web page" style="text;html=1;align=center;verticalAlign=middle;resizable=0;points=[];autosize=1;strokeColor=none;fillColor=none;fontSize=20;fontStyle=1" vertex="1" parent="1">
          <mxGeometry x="565" y="220" width="110" height="40" as="geometry" />
        </mxCell>
        <mxCell id="VkK7FNn0vx6hkwKJr5Af-14" value="HTML&lt;div&gt;JS&lt;/div&gt;&lt;div&gt;files&lt;/div&gt;" style="text;html=1;align=center;verticalAlign=middle;resizable=0;points=[];autosize=1;strokeColor=none;fillColor=none;fontSize=20;fontStyle=1" vertex="1" parent="1">
          <mxGeometry x="360" y="220" width="80" height="90" as="geometry" />
        </mxCell>
      </root>
    </mxGraphModel>
  </diagram>
</mxfile>
